<svg width="23" height="23" viewBox="0 0 23 23" fill="none" xmlns="http://www.w3.org/2000/svg">
<path d="M11.1035 22.8604C5.10874 22.8604 0.203516 17.9552 0.203516 11.9604C0.203516 5.96568 5.10874 1.06045 11.1035 1.06045C17.0983 1.06045 22.0035 5.96568 22.0035 11.9604C22.0035 17.9552 17.0983 22.8604 11.1035 22.8604ZM11.1035 3.06045C6.20829 3.06045 2.20352 7.06522 2.20352 11.9604C2.20352 16.8557 6.20829 20.8605 11.1035 20.8605C15.9987 20.8605 20.0035 16.8557 20.0035 11.9604C20.0035 7.06522 15.9987 3.06045 11.1035 3.06045Z" fill="#164FCA" stroke="white" stroke-width="0.2"/>
<path d="M11.1029 17.3606C10.7957 17.3606 10.5474 17.2586 10.3761 17.0874C10.2049 16.9162 10.1029 16.6679 10.1029 16.3606V10.8606C10.1029 10.5533 10.2049 10.3051 10.3761 10.1338C10.5474 9.96261 10.7957 9.86062 11.1029 9.86062C11.4102 9.86062 11.6585 9.96261 11.8297 10.1338C12.0009 10.3051 12.1029 10.5533 12.1029 10.8606V16.3606C12.1029 16.6679 12.0009 16.9162 11.8297 17.0874C11.6585 17.2586 11.4102 17.3606 11.1029 17.3606Z" fill="#164FCA" stroke="white" stroke-width="0.2"/>
<path d="M12.1029 7.56045C12.1029 8.11273 11.6552 8.56045 11.1029 8.56045C10.5506 8.56045 10.1029 8.11273 10.1029 7.56045C10.1029 7.00816 10.5506 6.56045 11.1029 6.56045C11.6552 6.56045 12.1029 7.00816 12.1029 7.56045Z" fill="#164FCA" stroke="white" stroke-width="0.2"/>
</svg>
