<svg width="20" height="20" viewBox="0 0 20 20" fill="none" xmlns="http://www.w3.org/2000/svg">
<path d="M6.99898 17.988C4.23919 17.9848 2.0027 15.7483 1.99957 12.9886C1.99957 12.8045 1.85035 12.6553 1.66629 12.6553C1.48223 12.6553 1.33301 12.8045 1.33301 12.9886C1.3365 16.1163 3.87119 18.6511 6.99901 18.6546C7.18307 18.6546 7.33229 18.5053 7.33229 18.3213C7.33229 18.1372 7.18307 17.988 6.99898 17.988Z" fill="#8247E3"/>
<path d="M13.9984 7.9894C13.6072 7.98983 13.2171 8.02859 12.8335 8.10506C11.0724 4.06719 7.85041 0.590266 7.48114 0.197989C7.21406 -0.0659964 6.78434 -0.0659964 6.51726 0.197989C5.84997 0.904233 4.5947e-06 7.26246 4.5947e-06 12.9888C-0.00289092 15.5203 1.36294 17.8556 3.5708 19.0941C5.77867 20.3327 8.48358 20.2809 10.6424 18.9587C12.7754 20.4007 15.5905 20.321 17.6385 18.7606C19.6863 17.2001 20.5102 14.5071 19.686 12.0679C18.8617 9.62886 16.573 7.98763 13.9984 7.9894ZM6.99916 19.3214C3.50338 19.3175 0.670449 16.4846 0.666566 12.9888C0.666566 7.5201 6.35323 1.34215 6.99683 0.656896C7.35446 1.03552 10.4547 4.38313 12.1789 8.27431C10.109 8.93005 8.55613 10.6547 8.12029 12.7817C7.68445 14.9088 8.43396 17.1052 10.0791 18.5221C9.13767 19.0474 8.07725 19.3225 6.99916 19.3214ZM13.9984 19.3214C11.0532 19.3214 8.66567 16.9339 8.66567 13.9887C8.66567 11.0435 11.0532 8.656 13.9984 8.656C16.9435 8.656 19.331 11.0435 19.331 13.9887C19.3276 16.9324 16.9421 19.3179 13.9984 19.3214Z" fill="#8247E3"/>
<path d="M13.9962 9.32202C11.4203 9.32479 9.33284 11.4123 9.33008 13.9881C9.33008 14.1722 9.4793 14.3214 9.66336 14.3214C9.84742 14.3214 9.99664 14.1722 9.99664 13.9881C9.99664 11.7793 11.7873 9.98862 13.9962 9.98862C16.2051 9.98862 17.9957 11.7793 17.9957 13.9881C17.9957 14.1722 18.1449 14.3214 18.329 14.3214C18.5131 14.3214 18.6623 14.1722 18.6623 13.9881C18.6596 11.4123 16.5721 9.32479 13.9962 9.32202Z" fill="#8247E3"/>
<path d="M14.3335 12.7031V10.9893C14.3335 10.8052 14.1843 10.656 14.0002 10.656C13.8162 10.656 13.667 10.8052 13.667 10.9893V12.7031C13.017 12.8709 12.5931 13.4959 12.6777 14.1619C12.7623 14.8279 13.3289 15.3271 14.0003 15.3271C14.6716 15.3271 15.2382 14.8279 15.3228 14.1619C15.4074 13.4959 14.9836 12.8709 14.3335 12.7031ZM14.0002 14.6555C13.6321 14.6555 13.3337 14.3571 13.3337 13.9889C13.3337 13.6208 13.6321 13.3223 14.0002 13.3223C14.3684 13.3223 14.6668 13.6208 14.6668 13.9889C14.6668 14.357 14.3684 14.6555 14.0002 14.6555Z" fill="#8247E3"/>
</svg>
