<svg width="12" height="20" viewBox="0 0 12 20" fill="none" xmlns="http://www.w3.org/2000/svg">
<path d="M5.288 0C4.50886 0 3.76162 0.309515 3.21068 0.860456C2.65974 1.4114 2.35022 2.15863 2.35022 2.93778V10.3151C1.40693 10.9454 0.691345 11.8623 0.309139 12.9305C-0.0730667 13.9986 -0.101624 15.1614 0.227686 16.247C0.556996 17.3326 1.22671 18.2835 2.13792 18.9593C3.04914 19.6352 4.15353 20 5.288 20C6.42247 20 7.52687 19.6352 8.43808 18.9593C9.34929 18.2835 10.019 17.3326 10.3483 16.247C10.6776 15.1614 10.6491 13.9986 10.2669 12.9305C9.88466 11.8623 9.16907 10.9454 8.22578 10.3151V2.93778C8.22578 2.15863 7.91627 1.4114 7.36533 0.860456C6.81439 0.309515 6.06715 0 5.288 0ZM9.4009 14.6889C9.40466 15.4119 9.21778 16.1231 8.85909 16.7508C8.5004 17.3785 7.98258 17.9006 7.35782 18.2644C6.73306 18.6283 6.02342 18.821 5.30044 18.8232C4.57746 18.8254 3.86669 18.6369 3.23974 18.2769C2.6128 17.9168 2.09184 17.3978 1.72938 16.7723C1.36692 16.1467 1.17576 15.4366 1.17517 14.7137C1.17458 13.9907 1.36457 13.2803 1.72601 12.6542C2.08745 12.028 2.60755 11.5082 3.23391 11.1471C3.32244 11.0954 3.39592 11.0215 3.44705 10.9327C3.49817 10.8438 3.52516 10.7431 3.52534 10.6406V2.93778C3.52534 2.47029 3.71104 2.02195 4.04161 1.69138C4.37217 1.36082 4.82051 1.17511 5.288 1.17511C5.75549 1.17511 6.20383 1.36082 6.5344 1.69138C6.86496 2.02195 7.05067 2.47029 7.05067 2.93778V10.6406C7.05085 10.7431 7.07784 10.8438 7.12896 10.9327C7.18008 11.0215 7.25356 11.0954 7.3421 11.1471C7.96756 11.503 8.48757 12.0182 8.84921 12.6403C9.21085 13.2625 9.4012 13.9693 9.4009 14.6889ZM5.87556 12.4221V2.93778C5.87556 2.78195 5.81366 2.6325 5.70347 2.52231C5.59328 2.41213 5.44383 2.35022 5.288 2.35022C5.13217 2.35022 4.98273 2.41213 4.87254 2.52231C4.76235 2.6325 4.70045 2.78195 4.70045 2.93778V12.4221C4.14658 12.5651 3.66389 12.9052 3.34284 13.3787C3.02179 13.8521 2.88443 14.4264 2.95651 14.9938C3.02859 15.5613 3.30516 16.083 3.73437 16.4612C4.16358 16.8393 4.71597 17.0479 5.288 17.0479C5.86003 17.0479 6.41242 16.8393 6.84164 16.4612C7.27085 16.083 7.54742 15.5613 7.6195 14.9938C7.69157 14.4264 7.55422 13.8521 7.23317 13.3787C6.91212 12.9052 6.42942 12.5651 5.87556 12.4221ZM5.288 15.864C5.05559 15.864 4.82839 15.7951 4.63515 15.666C4.4419 15.5368 4.29128 15.3533 4.20234 15.1386C4.1134 14.9239 4.09013 14.6876 4.13547 14.4596C4.18081 14.2317 4.29273 14.0223 4.45707 13.858C4.62142 13.6936 4.8308 13.5817 5.05875 13.5364C5.2867 13.491 5.52298 13.5143 5.7377 13.6032C5.95242 13.6922 6.13595 13.8428 6.26507 14.036C6.3942 14.2293 6.46312 14.4565 6.46312 14.6889C6.46312 15.0006 6.33931 15.2995 6.11893 15.5198C5.89856 15.7402 5.59966 15.864 5.288 15.864ZM11.7511 2.93778C11.7511 3.09361 11.6892 3.24306 11.579 3.35324C11.4688 3.46343 11.3194 3.52534 11.1636 3.52534H9.98845C9.83262 3.52534 9.68317 3.46343 9.57299 3.35324C9.4628 3.24306 9.4009 3.09361 9.4009 2.93778C9.4009 2.78195 9.4628 2.6325 9.57299 2.52231C9.68317 2.41213 9.83262 2.35022 9.98845 2.35022H11.1636C11.3194 2.35022 11.4688 2.41213 11.579 2.52231C11.6892 2.6325 11.7511 2.78195 11.7511 2.93778ZM11.7511 5.288C11.7511 5.44383 11.6892 5.59328 11.579 5.70347C11.4688 5.81366 11.3194 5.87556 11.1636 5.87556H9.98845C9.83262 5.87556 9.68317 5.81366 9.57299 5.70347C9.4628 5.59328 9.4009 5.44383 9.4009 5.288C9.4009 5.13217 9.4628 4.98273 9.57299 4.87254C9.68317 4.76235 9.83262 4.70045 9.98845 4.70045H11.1636C11.3194 4.70045 11.4688 4.76235 11.579 4.87254C11.6892 4.98273 11.7511 5.13217 11.7511 5.288ZM11.1636 8.22578H9.98845C9.83262 8.22578 9.68317 8.16388 9.57299 8.05369C9.4628 7.9435 9.4009 7.79406 9.4009 7.63823C9.4009 7.4824 9.4628 7.33295 9.57299 7.22276C9.68317 7.11257 9.83262 7.05067 9.98845 7.05067H11.1636C11.3194 7.05067 11.4688 7.11257 11.579 7.22276C11.6892 7.33295 11.7511 7.4824 11.7511 7.63823C11.7511 7.79406 11.6892 7.9435 11.579 8.05369C11.4688 8.16388 11.3194 8.22578 11.1636 8.22578Z" fill="#F0A315"/>
</svg>
