<svg width="21" height="21" viewBox="0 0 21 21" fill="none" xmlns="http://www.w3.org/2000/svg">
<path d="M15.2915 20.7625H1.87484C1.43021 20.762 1.00395 20.5851 0.689557 20.2707C0.37516 19.9563 0.198294 19.53 0.197754 19.0854V1.83541C0.198294 1.39078 0.37516 0.964525 0.689557 0.650128C1.00395 0.335731 1.43021 0.158865 1.87484 0.158325H15.2915C15.7361 0.158865 16.1624 0.335731 16.4768 0.650128C16.7912 0.964525 16.968 1.39078 16.9686 1.83541V12.3771C16.9686 12.5677 16.8929 12.7505 16.7581 12.8853C16.6233 13.0201 16.4405 13.0958 16.2498 13.0958C16.0592 13.0958 15.8764 13.0201 15.7416 12.8853C15.6068 12.7505 15.5311 12.5677 15.5311 12.3771V1.83541C15.5303 1.7721 15.5049 1.71159 15.4601 1.66682C15.4153 1.62205 15.3548 1.59657 15.2915 1.59583H1.87484C1.81153 1.59657 1.75102 1.62205 1.70625 1.66682C1.66148 1.71159 1.636 1.7721 1.63525 1.83541V19.0854C1.636 19.1487 1.66148 19.2092 1.70625 19.254C1.75102 19.2988 1.81153 19.3242 1.87484 19.325H15.2915C15.4716 19.2534 15.6725 19.2548 15.8516 19.329C16.0306 19.4032 16.1736 19.5443 16.2503 19.7223C16.2876 19.808 16.3075 19.9003 16.3088 19.9937C16.31 20.0872 16.2927 20.18 16.2577 20.2667C16.2227 20.3533 16.1708 20.4322 16.105 20.4986C16.0393 20.565 15.9609 20.6177 15.8746 20.6535C15.689 20.7268 15.491 20.7639 15.2915 20.7625Z" fill="#164FCA"/>
<path d="M12.8955 5.4292H4.27051C4.07988 5.4292 3.89707 5.35347 3.76227 5.21868C3.62748 5.08389 3.55176 4.90107 3.55176 4.71045C3.55176 4.51982 3.62748 4.33701 3.76227 4.20222C3.89707 4.06742 4.07988 3.9917 4.27051 3.9917H12.8955C13.0861 3.9917 13.2689 4.06742 13.4037 4.20222C13.5385 4.33701 13.6143 4.51982 13.6143 4.71045C13.6143 4.90107 13.5385 5.08389 13.4037 5.21868C13.2689 5.35347 13.0861 5.4292 12.8955 5.4292Z" fill="#164FCA"/>
<path d="M12.8955 9.26245H4.27051C4.07988 9.26245 3.89707 9.18673 3.76227 9.05193C3.62748 8.91714 3.55176 8.73433 3.55176 8.5437C3.55176 8.35308 3.62748 8.17026 3.76227 8.03547C3.89707 7.90068 4.07988 7.82495 4.27051 7.82495H12.8955C13.0861 7.82495 13.2689 7.90068 13.4037 8.03547C13.5385 8.17026 13.6143 8.35308 13.6143 8.5437C13.6143 8.73433 13.5385 8.91714 13.4037 9.05193C13.2689 9.18673 13.0861 9.26245 12.8955 9.26245Z" fill="#164FCA"/>
<path d="M10.4997 13.0958H4.27051C4.07988 13.0958 3.89707 13.0201 3.76227 12.8853C3.62748 12.7505 3.55176 12.5677 3.55176 12.3771C3.55176 12.1865 3.62748 12.0036 3.76227 11.8688C3.89707 11.7341 4.07988 11.6583 4.27051 11.6583H10.4997C10.6903 11.6583 10.8731 11.7341 11.0079 11.8688C11.1427 12.0036 11.2184 12.1865 11.2184 12.3771C11.2184 12.5677 11.1427 12.7505 11.0079 12.8853C10.8731 13.0201 10.6903 13.0958 10.4997 13.0958Z" fill="#164FCA"/>
<path d="M9.54134 16.9292H4.27051C4.07988 16.9292 3.89707 16.8535 3.76227 16.7187C3.62748 16.5839 3.55176 16.4011 3.55176 16.2104C3.55176 16.0198 3.62748 15.837 3.76227 15.7022C3.89707 15.5674 4.07988 15.4917 4.27051 15.4917H9.54134C9.73197 15.4917 9.91478 15.5674 10.0496 15.7022C10.1844 15.837 10.2601 16.0198 10.2601 16.2104C10.2601 16.4011 10.1844 16.5839 10.0496 16.7187C9.91478 16.8535 9.73197 16.9292 9.54134 16.9292Z" fill="#164FCA"/>
<path d="M16.2498 20.7625C15.3495 20.7625 14.4694 20.4955 13.7208 19.9953C12.9723 19.4951 12.3888 18.7842 12.0443 17.9524C11.6997 17.1206 11.6096 16.2054 11.7852 15.3223C11.9609 14.4393 12.3944 13.6282 13.031 12.9916C13.6677 12.355 14.4788 11.9214 15.3618 11.7458C16.2448 11.5702 17.1601 11.6603 17.9918 12.0048C18.8236 12.3494 19.5346 12.9328 20.0348 13.6814C20.5349 14.43 20.8019 15.3101 20.8019 16.2104C20.8006 17.4173 20.3205 18.5743 19.4671 19.4277C18.6138 20.2811 17.4567 20.7611 16.2498 20.7625ZM16.2498 13.0958C15.6338 13.0958 15.0317 13.2785 14.5195 13.6207C14.0073 13.963 13.6081 14.4494 13.3723 15.0185C13.1366 15.5876 13.0749 16.2139 13.1951 16.818C13.3153 17.4222 13.6119 17.9772 14.0475 18.4128C14.4831 18.8483 15.038 19.145 15.6422 19.2651C16.2464 19.3853 16.8726 19.3236 17.4417 19.0879C18.0109 18.8522 18.4973 18.453 18.8395 17.9408C19.1818 17.4286 19.3644 16.8264 19.3644 16.2104C19.3635 15.3847 19.035 14.593 18.4511 14.0091C17.8672 13.4252 17.0756 13.0968 16.2498 13.0958Z" fill="#164FCA"/>
<path d="M15.7707 17.8875C15.6763 17.8876 15.5828 17.8691 15.4956 17.8329C15.4083 17.7968 15.3291 17.7438 15.2625 17.6769L14.3041 16.7186C14.237 16.652 14.1837 16.5727 14.1473 16.4854C14.1108 16.3981 14.092 16.3045 14.0918 16.2099C14.0916 16.1153 14.1101 16.0216 14.1463 15.9342C14.1824 15.8467 14.2354 15.7673 14.3023 15.7004C14.3692 15.6335 14.4486 15.5805 14.5361 15.5444C14.6235 15.5082 14.7172 15.4897 14.8118 15.4899C14.9064 15.4901 15 15.5089 15.0873 15.5454C15.1746 15.5818 15.2538 15.6351 15.3205 15.7023L15.7707 16.1524L17.1791 14.7439C17.3141 14.61 17.4966 14.5349 17.6868 14.5353C17.8769 14.5356 18.0592 14.6113 18.1936 14.7458C18.3281 14.8802 18.4038 15.0625 18.4041 15.2526C18.4045 15.4428 18.3295 15.6253 18.1955 15.7603L16.2788 17.6769C16.2122 17.7438 16.133 17.7968 16.0458 17.8329C15.9585 17.8691 15.8651 17.8876 15.7707 17.8875Z" fill="#164FCA"/>
</svg>
