<svg width="22" height="23" viewBox="0 0 22 23" fill="none" xmlns="http://www.w3.org/2000/svg">
<g clip-path="url(#clip0_1404_14349)">
<path d="M10.6632 15.7081C10.0342 15.7081 9.5249 16.2323 9.5249 16.8614C9.5249 17.4755 10.0192 18.0147 10.6632 18.0147C11.3072 18.0147 11.8165 17.4755 11.8165 16.8614C11.8165 16.2323 11.2923 15.7081 10.6632 15.7081Z" fill="#164FCA"/>
<path d="M10.8578 6.9762C8.83582 6.9762 7.90723 8.17438 7.90723 8.98318C7.90723 9.56734 8.40145 9.83693 8.80588 9.83693C9.61463 9.83693 9.28515 8.68365 10.8129 8.68365C11.5618 8.68365 12.1609 9.01317 12.1609 9.70213C12.1609 10.511 11.3221 10.9753 10.8279 11.3946C10.3935 11.7691 9.82436 12.3832 9.82436 13.6712C9.82436 14.4501 10.034 14.6747 10.6481 14.6747C11.382 14.6747 11.5318 14.3453 11.5318 14.0607C11.5318 13.2818 11.5468 12.8325 12.3706 12.1885C12.7749 11.8739 14.0481 10.8555 14.0481 9.44754C14.0481 8.03963 12.7749 6.9762 10.8578 6.9762Z" fill="#164FCA"/>
<path d="M11 0.960449C4.92061 0.960449 0 5.88024 0 11.9604V22.1011C0 22.5757 0.384742 22.9604 0.859375 22.9604H11C17.0793 22.9604 22 18.0407 22 11.9604C22 5.88106 17.0802 0.960449 11 0.960449ZM11 21.2417H1.71875V11.9604C1.71875 6.83097 5.86983 2.6792 11 2.6792C16.1295 2.6792 20.2812 6.83028 20.2812 11.9604C20.2812 17.0899 16.1302 21.2417 11 21.2417Z" fill="#164FCA"/>
</g>
<defs>
<clipPath id="clip0_1404_14349">
<rect width="22" height="22" fill="white" transform="translate(0 0.960449)"/>
</clipPath>
</defs>
</svg>
