<svg width="20" height="20" viewBox="0 0 20 20" fill="none" xmlns="http://www.w3.org/2000/svg">
<g clip-path="url(#clip0_331_54)">
<path d="M20 8.84871C20 8.97303 19.9506 9.09226 19.8627 9.18017C19.7748 9.26808 19.6556 9.31746 19.5312 9.31746H15.1109L14.1852 10.4833C14.1378 10.5429 14.0767 10.5901 14.0071 10.6208C13.9375 10.6515 13.8614 10.6648 13.7855 10.6595C13.7096 10.6542 13.6361 10.6305 13.5714 10.5905C13.5067 10.5504 13.4527 10.4952 13.4141 10.4296L12.5203 8.91258L11.3191 14.2038C11.2956 14.3074 11.2376 14.4 11.1545 14.4663C11.0715 14.5326 10.9684 14.5687 10.8621 14.5688C10.859 14.5688 10.8559 14.5688 10.8527 14.5688C10.7449 14.5666 10.6411 14.5274 10.5588 14.4576C10.4765 14.3878 10.4208 14.2918 10.4011 14.1857L9.14875 7.44527L7.38793 11.3054C7.35131 11.3857 7.29278 11.454 7.21906 11.5025C7.14535 11.551 7.05945 11.5777 6.97124 11.5795C6.88303 11.5814 6.79609 11.5583 6.72041 11.5129C6.64474 11.4675 6.58341 11.4017 6.54348 11.323L5.57676 9.41844H0.46875C0.34443 9.41844 0.225201 9.36905 0.137294 9.28114C0.049386 9.19324 0 9.07401 0 8.94969C0 8.82537 0.049386 8.70614 0.137294 8.61823C0.225201 8.53032 0.34443 8.48094 0.46875 8.48094H5.86445C5.95102 8.48094 6.0359 8.50492 6.10967 8.55021C6.18345 8.59551 6.24324 8.66034 6.28242 8.73754L6.93887 10.0308L8.91187 5.70531C8.95324 5.61466 9.02242 5.53954 9.10937 5.49087C9.19633 5.4422 9.29653 5.4225 9.39543 5.43464C9.49434 5.44678 9.5868 5.49013 9.6594 5.55838C9.732 5.62664 9.78096 5.71625 9.79918 5.81422L10.9079 11.7809L11.8677 7.55332C11.8885 7.46176 11.9363 7.37855 12.0049 7.31448C12.0735 7.2504 12.1598 7.20842 12.2526 7.19397C12.3454 7.17951 12.4404 7.19325 12.5252 7.23341C12.6101 7.27356 12.681 7.33828 12.7286 7.41918L13.8754 9.36578L14.5175 8.55719C14.5614 8.5019 14.6172 8.45725 14.6808 8.42656C14.7444 8.39587 14.814 8.37994 14.8846 8.37996H19.5312C19.6556 8.37996 19.7748 8.42935 19.8627 8.51726C19.9506 8.60516 20 8.72439 20 8.84871Z" fill="#29C3C3"/>
</g>
<defs>
<clipPath id="clip0_331_54">
<rect width="20" height="20" fill="white"/>
</clipPath>
</defs>
</svg>
