<svg width="22" height="20" viewBox="0 0 22 20" fill="none" xmlns="http://www.w3.org/2000/svg">
<path d="M21.5029 4.99937C21.141 3.54918 20.3696 2.2987 19.2721 1.38312C18.2029 0.491247 16.893 0 15.5841 0C14.5806 0 13.6232 0.276115 12.7387 0.820552C12.0403 1.25065 11.4121 1.83557 10.8632 2.56567C9.61496 0.903387 7.96704 0 6.14438 0C4.83582 0 3.5266 0.491247 2.45761 1.38312C1.36043 2.2987 0.589189 3.54918 0.227276 4.9992C-0.166137 6.57611 -0.242398 9.09621 1.62983 12.1469C3.3628 14.9705 6.3667 17.5868 10.5583 19.923C10.6533 19.9758 10.7581 20.0024 10.863 20.0024C10.968 20.0024 11.0727 19.976 11.1677 19.923C15.3605 17.5867 18.3654 14.9703 20.099 12.1469C21.9721 9.09621 21.8963 6.57628 21.5029 4.99937ZM10.863 18.6095C5.89454 15.7841 3.43592 12.982 2.26745 10.6516H4.04684C4.28806 10.6516 4.50839 10.5124 4.61615 10.2921L5.41044 8.66899L7.56816 13.0785C7.67592 13.2989 7.89642 13.4382 8.13747 13.4382C8.37852 13.4382 8.59902 13.2989 8.70678 13.0785L10.8645 8.66899L11.6588 10.2921C11.7667 10.5125 11.987 10.6516 12.2281 10.6516H17.0555C17.407 10.6516 17.6919 10.3604 17.6919 10.0013C17.6919 9.64217 17.407 9.35098 17.0555 9.35098H12.6215L11.434 6.92388C11.3261 6.70349 11.1057 6.56442 10.8645 6.56442C10.6234 6.56442 10.4031 6.70349 10.2954 6.92388L8.13747 11.3334L5.97975 6.92388C5.87182 6.70349 5.65149 6.56442 5.41044 6.56442C5.16922 6.56442 4.94889 6.70349 4.84113 6.92388L3.65343 9.35098H1.72383C1.09302 7.46645 1.28649 6.0193 1.4609 5.32072C2.0516 2.95392 3.97738 1.30079 6.14438 1.30079C7.78335 1.30079 9.26582 2.27922 10.3186 4.0555C10.4338 4.25014 10.6402 4.36905 10.8628 4.36905C11.0853 4.36905 11.2921 4.25031 11.4075 4.05567C12.461 2.27922 13.9443 1.30079 15.5841 1.30079C17.752 1.30079 19.6786 2.95392 20.2693 5.32072C20.6789 6.9625 21.1949 12.7355 10.863 18.6095Z" fill="#DA4955"/>
</svg>
