<svg width="22" height="16" viewBox="0 0 22 16" fill="none" xmlns="http://www.w3.org/2000/svg">
<path d="M14.0675 13.8118C12.7017 13.8118 11.3665 13.4068 10.2308 12.648C9.09514 11.8891 8.21 10.8106 7.6873 9.54869C7.16461 8.2868 7.02785 6.89825 7.29432 5.55864C7.56079 4.21902 8.21851 2.98851 9.18432 2.0227C10.1501 1.05689 11.3806 0.399164 12.7203 0.132698C14.0599 -0.133768 15.4484 0.00299221 16.7103 0.525684C17.9722 1.04838 19.0508 1.93352 19.8096 3.06919C20.5684 4.20486 20.9734 5.54005 20.9734 6.90591C20.9713 8.73681 20.243 10.4921 18.9484 11.7867C17.6537 13.0814 15.8984 13.8097 14.0675 13.8118ZM14.0675 1.53465C13.0052 1.53465 11.9667 1.84967 11.0834 2.43987C10.2001 3.03007 9.51167 3.86895 9.10513 4.85042C8.6986 5.83189 8.59223 6.91187 8.79948 7.95379C9.00673 8.99572 9.51829 9.95278 10.2695 10.704C11.0207 11.4552 11.9777 11.9667 13.0197 12.174C14.0616 12.3812 15.1416 12.2748 16.123 11.8683C17.1045 11.4618 17.9434 10.7733 18.5336 9.89002C19.1238 9.00672 19.4388 7.96825 19.4388 6.90591C19.4372 5.48186 18.8707 4.11661 17.8638 3.10965C16.8568 2.1027 15.4916 1.53627 14.0675 1.53465Z" fill="#164FCA"/>
<path d="M21.2293 15.8583C21.1198 15.8583 21.0116 15.835 20.9119 15.7898C20.8122 15.7446 20.7234 15.6787 20.6512 15.5964L17.5308 12.0217C17.3969 11.8684 17.3293 11.6681 17.3431 11.465C17.3568 11.262 17.4506 11.0726 17.6039 10.9387C17.7572 10.8048 17.9575 10.7373 18.1605 10.751C18.3636 10.7647 18.553 10.8586 18.6869 11.0119L21.8073 14.5825C21.9054 14.6934 21.9694 14.8303 21.9914 14.9767C22.0135 15.1231 21.9927 15.2728 21.9316 15.4076C21.8705 15.5425 21.7717 15.6568 21.647 15.7368C21.5224 15.8167 21.3773 15.8589 21.2293 15.8583Z" fill="#164FCA"/>
<path d="M6.90591 2.55796H0.767323C0.563816 2.55796 0.368645 2.47712 0.224744 2.33322C0.0808428 2.18932 0 1.99415 0 1.79064C0 1.58713 0.0808428 1.39196 0.224744 1.24806C0.368645 1.10416 0.563816 1.02332 0.767323 1.02332H6.90591C7.10942 1.02332 7.30459 1.10416 7.44849 1.24806C7.59239 1.39196 7.67323 1.58713 7.67323 1.79064C7.67323 1.99415 7.59239 2.18932 7.44849 2.33322C7.30459 2.47712 7.10942 2.55796 6.90591 2.55796Z" fill="#164FCA"/>
<path d="M4.85971 6.64988H0.767323C0.563816 6.64988 0.368645 6.56904 0.224744 6.42514C0.0808428 6.28124 0 6.08606 0 5.88256C0 5.67905 0.0808428 5.48388 0.224744 5.33998C0.368645 5.19608 0.563816 5.11523 0.767323 5.11523H4.85971C5.06322 5.11523 5.25839 5.19608 5.40229 5.33998C5.54619 5.48388 5.62704 5.67905 5.62704 5.88256C5.62704 6.08606 5.54619 6.28124 5.40229 6.42514C5.25839 6.56904 5.06322 6.64988 4.85971 6.64988Z" fill="#164FCA"/>
<path d="M5.88281 10.7424H0.767323C0.563816 10.7424 0.368645 10.6616 0.224744 10.5177C0.0808428 10.3738 0 10.1786 0 9.97509C0 9.77158 0.0808428 9.57641 0.224744 9.43251C0.368645 9.28861 0.563816 9.20776 0.767323 9.20776H5.88281C6.08632 9.20776 6.28149 9.28861 6.42539 9.43251C6.56929 9.57641 6.65013 9.77158 6.65013 9.97509C6.65013 10.1786 6.56929 10.3738 6.42539 10.5177C6.28149 10.6616 6.08632 10.7424 5.88281 10.7424Z" fill="#164FCA"/>
</svg>
