<svg width="22" height="22" viewBox="0 0 22 22" fill="none" xmlns="http://www.w3.org/2000/svg">
<path d="M21.949 4.30638C21.8979 3.65106 21.6427 3.04255 21.1323 2.57447C20.2645 1.77872 19.1415 1.82553 18.0186 1.82553V1.77872C18.0186 0.795745 17.1508 0 16.0789 0C15.007 0 14.1392 0.795745 14.1392 1.77872V1.82553H7.7587V1.77872C7.7587 0.795745 6.89095 0 5.81903 0C4.7471 0 3.87935 0.795745 3.87935 1.77872V1.82553C2.90951 1.82553 1.93968 1.77872 1.12297 2.29362C0.459397 2.71489 0 3.55745 0 4.30638V4.35319V4.4V7.62979V19.4723C0 20.8766 1.22506 22 2.75638 22H16.1299H19.2436C20.7749 22 22 20.8766 22 19.4723V7.62979C22 7.11489 22 6.6 22 6.08511C21.949 5.4766 22 4.91489 21.949 4.30638ZM15.7216 1.77872C15.7216 1.59149 15.8747 1.40426 16.1299 1.40426C16.3341 1.40426 16.5383 1.54468 16.5383 1.77872V3.2766C16.5383 3.46383 16.3851 3.65106 16.1299 3.65106C15.9258 3.65106 15.7216 3.51064 15.7216 3.2766V1.77872ZM5.46172 1.77872C5.46172 1.59149 5.61485 1.40426 5.87007 1.40426C6.12529 1.40426 6.27842 1.54468 6.27842 1.77872V3.2766C6.27842 3.46383 6.12529 3.65106 5.87007 3.65106C5.61485 3.65106 5.46172 3.51064 5.46172 3.2766V1.77872ZM3.93039 3.22979C3.93039 4.21277 4.79814 5.00851 5.87007 5.00851C6.942 5.00851 7.80974 4.21277 7.80974 3.22979V3.18298H14.2923V3.22979C14.2923 4.21277 15.1601 5.00851 16.232 5.00851C17.3039 5.00851 18.1717 4.21277 18.1717 3.22979V3.18298H19.2947C19.9582 3.18298 20.5197 3.69787 20.5197 4.30638V6.13192H1.63341V4.30638C1.63341 3.69787 2.1949 3.18298 2.85847 3.18298H3.93039V3.22979ZM20.4176 19.4723C20.4176 20.0809 19.8561 20.5957 19.1926 20.5957H16.0789H2.75638C2.09281 20.5957 1.53132 20.0809 1.53132 19.4723V7.58298H20.4176V19.4723Z" fill="#164FCA"/>
<path d="M13.6799 14.3235C13.0163 14.932 12.3527 15.5405 11.6892 16.1491C11.3829 16.4299 11.3829 16.8512 11.6892 17.132C11.9954 17.4129 12.4548 17.4129 12.7611 17.132C13.6288 16.3363 14.4456 15.5874 15.3133 14.7916C15.6196 14.5108 15.6196 14.0895 15.3133 13.8086C14.4456 13.0129 13.6288 12.264 12.7611 11.4682C12.4548 11.1874 11.9954 11.1874 11.6892 11.4682C11.3829 11.7491 11.3829 12.1703 11.6892 12.4512C12.3527 13.0597 13.0163 13.715 13.6799 14.3235Z" fill="#164FCA"/>
<path d="M16.6403 14.3235C15.9768 14.932 15.3132 15.5405 14.6496 16.1491C14.3434 16.4299 14.3434 16.8512 14.6496 17.132C14.9559 17.4129 15.4153 17.4129 15.7215 17.132L18.2737 14.7916C18.58 14.5108 18.58 14.0895 18.2737 13.8086C17.406 13.0129 16.5893 12.264 15.7215 11.4682C15.4153 11.1874 14.9559 11.1874 14.6496 11.4682C14.3434 11.7491 14.3434 12.1703 14.6496 12.4512C15.3132 13.0597 15.9768 13.715 16.6403 14.3235Z" fill="#164FCA"/>
</svg>
