<svg width="23" height="24" viewBox="0 0 23 24" fill="none" xmlns="http://www.w3.org/2000/svg">
<path d="M11.5 22.6259C11.2146 22.6256 10.9339 22.5523 10.6849 22.4129L7.45516 20.6189C5.84963 19.7261 4.51184 18.4205 3.58021 16.8372C2.64858 15.2539 2.15697 13.4505 2.15625 11.6134V6.63413C2.15597 6.21957 2.30954 5.81966 2.5872 5.51183C2.86486 5.204 3.24687 5.01015 3.65926 4.96781C4.94409 4.8317 6.20861 4.54589 7.42708 4.1162C8.5443 3.72135 9.61606 3.20807 10.624 2.58511C10.8878 2.42384 11.1909 2.33854 11.5001 2.33862C11.8092 2.33871 12.1123 2.42417 12.376 2.58558C13.3841 3.2082 14.4558 3.72132 15.5729 4.1162C16.7914 4.5459 18.0559 4.83172 19.3407 4.96784C19.7531 5.01017 20.1351 5.20402 20.4128 5.51185C20.6905 5.81967 20.844 6.21958 20.8438 6.63413V11.6134C20.843 13.4505 20.3514 15.254 19.4198 16.8373C18.4882 18.4206 17.1504 19.7261 15.5448 20.6189L12.3142 22.4134C12.0654 22.5525 11.7851 22.6257 11.5 22.6259ZM11.5 3.77457C11.4578 3.77438 11.4163 3.78588 11.3802 3.8078C10.2847 4.48427 9.12015 5.04224 7.90625 5.47128C6.58193 5.93861 5.20745 6.24925 3.81087 6.39686C3.75153 6.40201 3.69629 6.42925 3.65608 6.47319C3.61587 6.51713 3.59363 6.57457 3.59375 6.63413V11.6134C3.59432 13.1941 4.01731 14.7459 4.81896 16.1083C5.62061 17.4706 6.77178 18.5939 8.15332 19.362L11.384 21.1565C11.4192 21.1764 11.459 21.1869 11.4995 21.1869C11.5399 21.187 11.5798 21.1767 11.6151 21.157L14.8467 19.362C16.2282 18.594 17.3794 17.4706 18.181 16.1083C18.9827 14.746 19.4057 13.1941 19.4062 11.6134V6.63413C19.4064 6.57457 19.3841 6.51714 19.3439 6.47321C19.3037 6.42927 19.2485 6.40204 19.1891 6.39689C17.7926 6.24927 16.4181 5.93862 15.0938 5.47128C13.8798 5.04223 12.7153 4.48472 11.6198 3.80824C11.5838 3.78598 11.5423 3.77431 11.5 3.77457Z" fill="#164FCA"/>
<path d="M11.0207 14.6167C10.8447 14.617 10.6747 14.5523 10.5434 14.4351L8.38718 12.5185C8.24536 12.3917 8.15958 12.2139 8.14865 12.024C8.13772 11.8341 8.20253 11.6476 8.32887 11.5054C8.45522 11.3632 8.63278 11.2769 8.82265 11.2654C9.01253 11.2539 9.19921 11.3182 9.34178 11.4441L10.9749 12.8956L14.0904 9.57281C14.1547 9.50273 14.2322 9.4461 14.3185 9.4062C14.4048 9.3663 14.4982 9.34392 14.5932 9.34035C14.6882 9.33678 14.783 9.3521 14.872 9.38543C14.9611 9.41875 15.0426 9.46941 15.112 9.53447C15.1813 9.59953 15.237 9.67771 15.276 9.76446C15.3149 9.85122 15.3362 9.94483 15.3387 10.0399C15.3411 10.1349 15.3247 10.2295 15.2904 10.3182C15.256 10.4069 15.2044 10.4878 15.1386 10.5564L11.5448 14.3897C11.4777 14.4615 11.3965 14.5187 11.3064 14.5577C11.2162 14.5968 11.1189 14.6168 11.0207 14.6167Z" fill="#164FCA"/>
</svg>
