<svg width="20" height="20" viewBox="0 0 20 20" fill="none" xmlns="http://www.w3.org/2000/svg">
<g clip-path="url(#clip0_331_29)">
<mask id="path-1-outside-1_331_29" maskUnits="userSpaceOnUse" x="-1.00098" y="-1" width="22" height="22" fill="black">
<rect fill="white" x="-1.00098" y="-1" width="22" height="22"/>
<path d="M16.7996 5.69167C15.4163 3.84167 12.4996 3.59167 12.4996 5.41667C12.5476 6.10988 12.4555 6.80565 12.2288 7.4625C11.4829 6.66667 11.6663 6.4125 11.6663 0.416667C11.6663 0.30616 11.6224 0.200179 11.5442 0.122039C11.4661 0.0438987 11.3601 0 11.2496 0C11.1391 0 11.0331 0.0438987 10.955 0.122039C10.8768 0.200179 10.8329 0.30616 10.8329 0.416667V6.04583C10.8329 7.5875 11.6163 8.0375 14.2538 10.675C14.291 10.7152 14.3123 10.7677 14.3136 10.8225C14.3149 10.8774 14.2962 10.9308 14.2609 10.9728C14.2255 11.0147 14.1761 11.0423 14.1219 11.0504C14.0676 11.0585 14.0123 11.0465 13.9663 11.0167L10.7163 8.75C10.5062 8.603 10.256 8.52415 9.99961 8.52415C9.74321 8.52415 9.49301 8.603 9.28294 8.75C5.85377 11.15 5.94961 11.1875 5.74544 11C5.70371 10.9579 5.6803 10.901 5.6803 10.8417C5.6803 10.7824 5.70371 10.7255 5.74544 10.6833L8.33294 8.10833C8.60626 7.835 8.82253 7.51007 8.96917 7.15242C9.1158 6.79476 9.18989 6.41153 9.18711 6.025V0.416667C9.18711 0.30616 9.14321 0.200179 9.06507 0.122039C8.98693 0.0438987 8.88095 0 8.77044 0C8.65993 0 8.55395 0.0438987 8.47581 0.122039C8.39767 0.200179 8.35377 0.30616 8.35377 0.416667V6.04583C8.3549 6.57272 8.15352 7.07989 7.79127 7.4625C7.5599 6.80651 7.46077 6.11118 7.49961 5.41667C7.49961 3.64167 4.64544 3.825 3.24961 5.625C1.14594 8.34216 0.00293263 11.6803 -0.000393016 15.1167C-0.000393016 17.3875 -0.0420597 17.0542 0.578774 18.9083C0.684855 19.229 0.890198 19.5076 1.1651 19.7039C1.44 19.9001 1.7702 20.0038 2.10794 20C2.91254 19.9872 3.69037 19.7089 4.32044 19.2083C6.14961 17.9792 8.33294 17.8333 8.33294 15.8333V10.4167C9.79127 9.39583 9.92044 9.19583 10.2371 9.41667L11.6663 10.4167V15.8333C11.6663 17.175 12.7329 17.8083 14.0121 18.3333C14.7905 18.6758 15.533 19.0945 16.2288 19.5833C17.4121 20.2625 18.9871 20.2458 19.4204 18.9375C20.0579 17.0083 19.9996 17.3333 19.9996 15.1167C19.9969 11.7088 18.8723 8.3967 16.7996 5.69167ZM7.49961 15.8333C7.49961 16.7542 6.59127 17.1792 5.67877 17.5417C4.86266 17.8937 4.08379 18.3264 3.35377 18.8333C2.67044 19.2292 1.62044 19.4042 1.37044 18.6458C0.774607 16.8667 0.83294 17.2625 0.83294 15.1167C0.834744 11.889 1.90091 8.75199 3.86627 6.19167C4.14195 5.81973 4.50141 5.518 4.9155 5.31095C5.32959 5.10391 5.78665 4.99738 6.24961 5C7.08294 5 6.24961 6.10417 7.14127 8.10417L5.94961 9.29167C5.68884 9.03914 5.49542 8.72537 5.38698 8.37895C5.27854 8.03253 5.25853 7.66447 5.32877 7.30833C5.33698 7.25362 5.33433 7.19782 5.32097 7.14412C5.30762 7.09043 5.28382 7.03989 5.25093 6.9954C5.21804 6.95091 5.17671 6.91332 5.1293 6.8848C5.08189 6.85628 5.02932 6.83737 4.97461 6.82917C4.91989 6.82096 4.86409 6.82361 4.8104 6.83697C4.7567 6.85032 4.70617 6.87412 4.66167 6.90701C4.61718 6.9399 4.5796 6.98123 4.55107 7.02864C4.52255 7.07605 4.50365 7.12862 4.49544 7.18333C4.43063 7.54994 4.43063 7.92506 4.49544 8.29167C4.12474 8.36989 3.77866 8.53721 3.48711 8.77917C3.42237 8.83453 3.37616 8.9084 3.35469 8.99083C3.33322 9.07325 3.33754 9.16028 3.36705 9.24019C3.39656 9.32009 3.44985 9.38903 3.51974 9.43772C3.58963 9.48641 3.67276 9.51251 3.75794 9.5125C4.06211 9.5125 4.06627 9.21667 4.77461 9.09583C5.31211 10.1167 5.52044 9.7125 5.14127 10.0958C4.98929 10.2487 4.88784 10.4445 4.85059 10.6569C4.81334 10.8692 4.84208 11.0878 4.93294 11.2833C4.71953 11.517 4.5514 11.7883 4.43711 12.0833C1.88711 12.3458 1.71211 14.2292 2.49961 14.2292C3.28711 14.2292 2.37877 13.25 4.30377 12.9458C4.15377 14.3375 4.02044 15.3042 2.83711 15.8833C2.75647 15.9267 2.69237 15.9955 2.65473 16.079C2.61708 16.1625 2.608 16.256 2.62886 16.3452C2.64973 16.4344 2.6994 16.5142 2.77018 16.5723C2.84096 16.6304 2.92891 16.6636 3.02044 16.6667C3.29961 16.6667 4.16627 16.1458 4.58294 15.3083C4.91232 15.6944 5.36094 15.9598 5.85794 16.0625C5.96845 16.0769 6.08013 16.0467 6.16843 15.9788C6.25673 15.9108 6.31441 15.8105 6.32877 15.7C6.34314 15.5895 6.31302 15.4778 6.24504 15.3895C6.17705 15.3012 6.07678 15.2435 5.96627 15.2292C5.52289 15.075 5.14907 14.7677 4.91211 14.3625C5.29961 12.6958 4.91211 12.5292 5.54961 11.8167C6.20377 12.0417 6.56627 11.6417 7.48711 10.9833L7.49961 15.8333ZM18.6288 18.6625C18.3788 19.425 17.2954 19.2208 16.6413 18.8458C15.9144 18.3327 15.1367 17.8957 14.3204 17.5417C13.4121 17.1667 12.4996 16.7458 12.4996 15.8333V11.0083C13.4496 11.6708 13.7871 12.0542 14.4329 11.8417C15.0704 12.5625 14.6663 12.6333 15.0746 14.3875C14.8376 14.7927 14.4638 15.1 14.0204 15.2542C13.9099 15.2685 13.8097 15.3262 13.7417 15.4145C13.6737 15.5028 13.6436 15.6145 13.6579 15.725C13.6723 15.8355 13.73 15.9358 13.8183 16.0038C13.9066 16.0717 14.0183 16.1019 14.1288 16.0875C14.6348 15.9836 15.0895 15.7084 15.4163 15.3083C15.8329 16.1417 16.7163 16.6667 16.9913 16.6667C17.0857 16.6671 17.1775 16.6353 17.2516 16.5767C17.3257 16.5181 17.3776 16.436 17.3989 16.344C17.4202 16.252 17.4096 16.1554 17.3689 16.0702C17.3281 15.985 17.2596 15.9162 17.1746 15.875C15.9996 15.3 15.8621 14.3625 15.7079 12.9583C17.6329 13.2625 16.7621 14.2417 17.5121 14.2417C18.2621 14.2417 18.1288 12.3583 15.5746 12.0958C15.4553 11.7995 15.2815 11.5281 15.0621 11.2958C15.153 11.1003 15.1817 10.8817 15.1445 10.6694C15.1072 10.457 15.0058 10.2612 14.8538 10.1083C14.4746 9.72917 14.6871 10.1083 15.2246 9.10833C15.9496 9.24167 15.9163 9.525 16.2371 9.525C16.3223 9.52501 16.4054 9.49891 16.4753 9.45022C16.5452 9.40153 16.5985 9.33259 16.628 9.25269C16.6575 9.17278 16.6618 9.08575 16.6404 9.00333C16.6189 8.9209 16.5727 8.84703 16.5079 8.79167C16.2164 8.54971 15.8703 8.38239 15.4996 8.30417C15.5644 7.93756 15.5644 7.56244 15.4996 7.19583C15.483 7.08533 15.4232 6.98593 15.3334 6.91951C15.2435 6.85309 15.1309 6.82509 15.0204 6.84167C14.9099 6.85824 14.8105 6.91804 14.7441 7.0079C14.6777 7.09776 14.6497 7.21033 14.6663 7.32083C14.7365 7.67697 14.7165 8.04503 14.6081 8.39145C14.4996 8.73787 14.3062 9.05164 14.0454 9.30417L12.8538 8.1125C13.2286 7.26568 13.393 6.34077 13.3329 5.41667C13.3329 4.58333 15.2579 5.02083 16.1371 6.19583C18.1001 8.75556 19.1647 11.8909 19.1663 15.1167C19.1663 17.3 19.2204 16.8833 18.6288 18.65V18.6625Z"/>
</mask>
<path d="M16.7996 5.69167C15.4163 3.84167 12.4996 3.59167 12.4996 5.41667C12.5476 6.10988 12.4555 6.80565 12.2288 7.4625C11.4829 6.66667 11.6663 6.4125 11.6663 0.416667C11.6663 0.30616 11.6224 0.200179 11.5442 0.122039C11.4661 0.0438987 11.3601 0 11.2496 0C11.1391 0 11.0331 0.0438987 10.955 0.122039C10.8768 0.200179 10.8329 0.30616 10.8329 0.416667V6.04583C10.8329 7.5875 11.6163 8.0375 14.2538 10.675C14.291 10.7152 14.3123 10.7677 14.3136 10.8225C14.3149 10.8774 14.2962 10.9308 14.2609 10.9728C14.2255 11.0147 14.1761 11.0423 14.1219 11.0504C14.0676 11.0585 14.0123 11.0465 13.9663 11.0167L10.7163 8.75C10.5062 8.603 10.256 8.52415 9.99961 8.52415C9.74321 8.52415 9.49301 8.603 9.28294 8.75C5.85377 11.15 5.94961 11.1875 5.74544 11C5.70371 10.9579 5.6803 10.901 5.6803 10.8417C5.6803 10.7824 5.70371 10.7255 5.74544 10.6833L8.33294 8.10833C8.60626 7.835 8.82253 7.51007 8.96917 7.15242C9.1158 6.79476 9.18989 6.41153 9.18711 6.025V0.416667C9.18711 0.30616 9.14321 0.200179 9.06507 0.122039C8.98693 0.0438987 8.88095 0 8.77044 0C8.65993 0 8.55395 0.0438987 8.47581 0.122039C8.39767 0.200179 8.35377 0.30616 8.35377 0.416667V6.04583C8.3549 6.57272 8.15352 7.07989 7.79127 7.4625C7.5599 6.80651 7.46077 6.11118 7.49961 5.41667C7.49961 3.64167 4.64544 3.825 3.24961 5.625C1.14594 8.34216 0.00293263 11.6803 -0.000393016 15.1167C-0.000393016 17.3875 -0.0420597 17.0542 0.578774 18.9083C0.684855 19.229 0.890198 19.5076 1.1651 19.7039C1.44 19.9001 1.7702 20.0038 2.10794 20C2.91254 19.9872 3.69037 19.7089 4.32044 19.2083C6.14961 17.9792 8.33294 17.8333 8.33294 15.8333V10.4167C9.79127 9.39583 9.92044 9.19583 10.2371 9.41667L11.6663 10.4167V15.8333C11.6663 17.175 12.7329 17.8083 14.0121 18.3333C14.7905 18.6758 15.533 19.0945 16.2288 19.5833C17.4121 20.2625 18.9871 20.2458 19.4204 18.9375C20.0579 17.0083 19.9996 17.3333 19.9996 15.1167C19.9969 11.7088 18.8723 8.3967 16.7996 5.69167ZM7.49961 15.8333C7.49961 16.7542 6.59127 17.1792 5.67877 17.5417C4.86266 17.8937 4.08379 18.3264 3.35377 18.8333C2.67044 19.2292 1.62044 19.4042 1.37044 18.6458C0.774607 16.8667 0.83294 17.2625 0.83294 15.1167C0.834744 11.889 1.90091 8.75199 3.86627 6.19167C4.14195 5.81973 4.50141 5.518 4.9155 5.31095C5.32959 5.10391 5.78665 4.99738 6.24961 5C7.08294 5 6.24961 6.10417 7.14127 8.10417L5.94961 9.29167C5.68884 9.03914 5.49542 8.72537 5.38698 8.37895C5.27854 8.03253 5.25853 7.66447 5.32877 7.30833C5.33698 7.25362 5.33433 7.19782 5.32097 7.14412C5.30762 7.09043 5.28382 7.03989 5.25093 6.9954C5.21804 6.95091 5.17671 6.91332 5.1293 6.8848C5.08189 6.85628 5.02932 6.83737 4.97461 6.82917C4.91989 6.82096 4.86409 6.82361 4.8104 6.83697C4.7567 6.85032 4.70617 6.87412 4.66167 6.90701C4.61718 6.9399 4.5796 6.98123 4.55107 7.02864C4.52255 7.07605 4.50365 7.12862 4.49544 7.18333C4.43063 7.54994 4.43063 7.92506 4.49544 8.29167C4.12474 8.36989 3.77866 8.53721 3.48711 8.77917C3.42237 8.83453 3.37616 8.9084 3.35469 8.99083C3.33322 9.07325 3.33754 9.16028 3.36705 9.24019C3.39656 9.32009 3.44985 9.38903 3.51974 9.43772C3.58963 9.48641 3.67276 9.51251 3.75794 9.5125C4.06211 9.5125 4.06627 9.21667 4.77461 9.09583C5.31211 10.1167 5.52044 9.7125 5.14127 10.0958C4.98929 10.2487 4.88784 10.4445 4.85059 10.6569C4.81334 10.8692 4.84208 11.0878 4.93294 11.2833C4.71953 11.517 4.5514 11.7883 4.43711 12.0833C1.88711 12.3458 1.71211 14.2292 2.49961 14.2292C3.28711 14.2292 2.37877 13.25 4.30377 12.9458C4.15377 14.3375 4.02044 15.3042 2.83711 15.8833C2.75647 15.9267 2.69237 15.9955 2.65473 16.079C2.61708 16.1625 2.608 16.256 2.62886 16.3452C2.64973 16.4344 2.6994 16.5142 2.77018 16.5723C2.84096 16.6304 2.92891 16.6636 3.02044 16.6667C3.29961 16.6667 4.16627 16.1458 4.58294 15.3083C4.91232 15.6944 5.36094 15.9598 5.85794 16.0625C5.96845 16.0769 6.08013 16.0467 6.16843 15.9788C6.25673 15.9108 6.31441 15.8105 6.32877 15.7C6.34314 15.5895 6.31302 15.4778 6.24504 15.3895C6.17705 15.3012 6.07678 15.2435 5.96627 15.2292C5.52289 15.075 5.14907 14.7677 4.91211 14.3625C5.29961 12.6958 4.91211 12.5292 5.54961 11.8167C6.20377 12.0417 6.56627 11.6417 7.48711 10.9833L7.49961 15.8333ZM18.6288 18.6625C18.3788 19.425 17.2954 19.2208 16.6413 18.8458C15.9144 18.3327 15.1367 17.8957 14.3204 17.5417C13.4121 17.1667 12.4996 16.7458 12.4996 15.8333V11.0083C13.4496 11.6708 13.7871 12.0542 14.4329 11.8417C15.0704 12.5625 14.6663 12.6333 15.0746 14.3875C14.8376 14.7927 14.4638 15.1 14.0204 15.2542C13.9099 15.2685 13.8097 15.3262 13.7417 15.4145C13.6737 15.5028 13.6436 15.6145 13.6579 15.725C13.6723 15.8355 13.73 15.9358 13.8183 16.0038C13.9066 16.0717 14.0183 16.1019 14.1288 16.0875C14.6348 15.9836 15.0895 15.7084 15.4163 15.3083C15.8329 16.1417 16.7163 16.6667 16.9913 16.6667C17.0857 16.6671 17.1775 16.6353 17.2516 16.5767C17.3257 16.5181 17.3776 16.436 17.3989 16.344C17.4202 16.252 17.4096 16.1554 17.3689 16.0702C17.3281 15.985 17.2596 15.9162 17.1746 15.875C15.9996 15.3 15.8621 14.3625 15.7079 12.9583C17.6329 13.2625 16.7621 14.2417 17.5121 14.2417C18.2621 14.2417 18.1288 12.3583 15.5746 12.0958C15.4553 11.7995 15.2815 11.5281 15.0621 11.2958C15.153 11.1003 15.1817 10.8817 15.1445 10.6694C15.1072 10.457 15.0058 10.2612 14.8538 10.1083C14.4746 9.72917 14.6871 10.1083 15.2246 9.10833C15.9496 9.24167 15.9163 9.525 16.2371 9.525C16.3223 9.52501 16.4054 9.49891 16.4753 9.45022C16.5452 9.40153 16.5985 9.33259 16.628 9.25269C16.6575 9.17278 16.6618 9.08575 16.6404 9.00333C16.6189 8.9209 16.5727 8.84703 16.5079 8.79167C16.2164 8.54971 15.8703 8.38239 15.4996 8.30417C15.5644 7.93756 15.5644 7.56244 15.4996 7.19583C15.483 7.08533 15.4232 6.98593 15.3334 6.91951C15.2435 6.85309 15.1309 6.82509 15.0204 6.84167C14.9099 6.85824 14.8105 6.91804 14.7441 7.0079C14.6777 7.09776 14.6497 7.21033 14.6663 7.32083C14.7365 7.67697 14.7165 8.04503 14.6081 8.39145C14.4996 8.73787 14.3062 9.05164 14.0454 9.30417L12.8538 8.1125C13.2286 7.26568 13.393 6.34077 13.3329 5.41667C13.3329 4.58333 15.2579 5.02083 16.1371 6.19583C18.1001 8.75556 19.1647 11.8909 19.1663 15.1167C19.1663 17.3 19.2204 16.8833 18.6288 18.65V18.6625Z" fill="#3AC528"/>
<path d="M16.7996 5.69167C15.4163 3.84167 12.4996 3.59167 12.4996 5.41667C12.5476 6.10988 12.4555 6.80565 12.2288 7.4625C11.4829 6.66667 11.6663 6.4125 11.6663 0.416667C11.6663 0.30616 11.6224 0.200179 11.5442 0.122039C11.4661 0.0438987 11.3601 0 11.2496 0C11.1391 0 11.0331 0.0438987 10.955 0.122039C10.8768 0.200179 10.8329 0.30616 10.8329 0.416667V6.04583C10.8329 7.5875 11.6163 8.0375 14.2538 10.675C14.291 10.7152 14.3123 10.7677 14.3136 10.8225C14.3149 10.8774 14.2962 10.9308 14.2609 10.9728C14.2255 11.0147 14.1761 11.0423 14.1219 11.0504C14.0676 11.0585 14.0123 11.0465 13.9663 11.0167L10.7163 8.75C10.5062 8.603 10.256 8.52415 9.99961 8.52415C9.74321 8.52415 9.49301 8.603 9.28294 8.75C5.85377 11.15 5.94961 11.1875 5.74544 11C5.70371 10.9579 5.6803 10.901 5.6803 10.8417C5.6803 10.7824 5.70371 10.7255 5.74544 10.6833L8.33294 8.10833C8.60626 7.835 8.82253 7.51007 8.96917 7.15242C9.1158 6.79476 9.18989 6.41153 9.18711 6.025V0.416667C9.18711 0.30616 9.14321 0.200179 9.06507 0.122039C8.98693 0.0438987 8.88095 0 8.77044 0C8.65993 0 8.55395 0.0438987 8.47581 0.122039C8.39767 0.200179 8.35377 0.30616 8.35377 0.416667V6.04583C8.3549 6.57272 8.15352 7.07989 7.79127 7.4625C7.5599 6.80651 7.46077 6.11118 7.49961 5.41667C7.49961 3.64167 4.64544 3.825 3.24961 5.625C1.14594 8.34216 0.00293263 11.6803 -0.000393016 15.1167C-0.000393016 17.3875 -0.0420597 17.0542 0.578774 18.9083C0.684855 19.229 0.890198 19.5076 1.1651 19.7039C1.44 19.9001 1.7702 20.0038 2.10794 20C2.91254 19.9872 3.69037 19.7089 4.32044 19.2083C6.14961 17.9792 8.33294 17.8333 8.33294 15.8333V10.4167C9.79127 9.39583 9.92044 9.19583 10.2371 9.41667L11.6663 10.4167V15.8333C11.6663 17.175 12.7329 17.8083 14.0121 18.3333C14.7905 18.6758 15.533 19.0945 16.2288 19.5833C17.4121 20.2625 18.9871 20.2458 19.4204 18.9375C20.0579 17.0083 19.9996 17.3333 19.9996 15.1167C19.9969 11.7088 18.8723 8.3967 16.7996 5.69167ZM7.49961 15.8333C7.49961 16.7542 6.59127 17.1792 5.67877 17.5417C4.86266 17.8937 4.08379 18.3264 3.35377 18.8333C2.67044 19.2292 1.62044 19.4042 1.37044 18.6458C0.774607 16.8667 0.83294 17.2625 0.83294 15.1167C0.834744 11.889 1.90091 8.75199 3.86627 6.19167C4.14195 5.81973 4.50141 5.518 4.9155 5.31095C5.32959 5.10391 5.78665 4.99738 6.24961 5C7.08294 5 6.24961 6.10417 7.14127 8.10417L5.94961 9.29167C5.68884 9.03914 5.49542 8.72537 5.38698 8.37895C5.27854 8.03253 5.25853 7.66447 5.32877 7.30833C5.33698 7.25362 5.33433 7.19782 5.32097 7.14412C5.30762 7.09043 5.28382 7.03989 5.25093 6.9954C5.21804 6.95091 5.17671 6.91332 5.1293 6.8848C5.08189 6.85628 5.02932 6.83737 4.97461 6.82917C4.91989 6.82096 4.86409 6.82361 4.8104 6.83697C4.7567 6.85032 4.70617 6.87412 4.66167 6.90701C4.61718 6.9399 4.5796 6.98123 4.55107 7.02864C4.52255 7.07605 4.50365 7.12862 4.49544 7.18333C4.43063 7.54994 4.43063 7.92506 4.49544 8.29167C4.12474 8.36989 3.77866 8.53721 3.48711 8.77917C3.42237 8.83453 3.37616 8.9084 3.35469 8.99083C3.33322 9.07325 3.33754 9.16028 3.36705 9.24019C3.39656 9.32009 3.44985 9.38903 3.51974 9.43772C3.58963 9.48641 3.67276 9.51251 3.75794 9.5125C4.06211 9.5125 4.06627 9.21667 4.77461 9.09583C5.31211 10.1167 5.52044 9.7125 5.14127 10.0958C4.98929 10.2487 4.88784 10.4445 4.85059 10.6569C4.81334 10.8692 4.84208 11.0878 4.93294 11.2833C4.71953 11.517 4.5514 11.7883 4.43711 12.0833C1.88711 12.3458 1.71211 14.2292 2.49961 14.2292C3.28711 14.2292 2.37877 13.25 4.30377 12.9458C4.15377 14.3375 4.02044 15.3042 2.83711 15.8833C2.75647 15.9267 2.69237 15.9955 2.65473 16.079C2.61708 16.1625 2.608 16.256 2.62886 16.3452C2.64973 16.4344 2.6994 16.5142 2.77018 16.5723C2.84096 16.6304 2.92891 16.6636 3.02044 16.6667C3.29961 16.6667 4.16627 16.1458 4.58294 15.3083C4.91232 15.6944 5.36094 15.9598 5.85794 16.0625C5.96845 16.0769 6.08013 16.0467 6.16843 15.9788C6.25673 15.9108 6.31441 15.8105 6.32877 15.7C6.34314 15.5895 6.31302 15.4778 6.24504 15.3895C6.17705 15.3012 6.07678 15.2435 5.96627 15.2292C5.52289 15.075 5.14907 14.7677 4.91211 14.3625C5.29961 12.6958 4.91211 12.5292 5.54961 11.8167C6.20377 12.0417 6.56627 11.6417 7.48711 10.9833L7.49961 15.8333ZM18.6288 18.6625C18.3788 19.425 17.2954 19.2208 16.6413 18.8458C15.9144 18.3327 15.1367 17.8957 14.3204 17.5417C13.4121 17.1667 12.4996 16.7458 12.4996 15.8333V11.0083C13.4496 11.6708 13.7871 12.0542 14.4329 11.8417C15.0704 12.5625 14.6663 12.6333 15.0746 14.3875C14.8376 14.7927 14.4638 15.1 14.0204 15.2542C13.9099 15.2685 13.8097 15.3262 13.7417 15.4145C13.6737 15.5028 13.6436 15.6145 13.6579 15.725C13.6723 15.8355 13.73 15.9358 13.8183 16.0038C13.9066 16.0717 14.0183 16.1019 14.1288 16.0875C14.6348 15.9836 15.0895 15.7084 15.4163 15.3083C15.8329 16.1417 16.7163 16.6667 16.9913 16.6667C17.0857 16.6671 17.1775 16.6353 17.2516 16.5767C17.3257 16.5181 17.3776 16.436 17.3989 16.344C17.4202 16.252 17.4096 16.1554 17.3689 16.0702C17.3281 15.985 17.2596 15.9162 17.1746 15.875C15.9996 15.3 15.8621 14.3625 15.7079 12.9583C17.6329 13.2625 16.7621 14.2417 17.5121 14.2417C18.2621 14.2417 18.1288 12.3583 15.5746 12.0958C15.4553 11.7995 15.2815 11.5281 15.0621 11.2958C15.153 11.1003 15.1817 10.8817 15.1445 10.6694C15.1072 10.457 15.0058 10.2612 14.8538 10.1083C14.4746 9.72917 14.6871 10.1083 15.2246 9.10833C15.9496 9.24167 15.9163 9.525 16.2371 9.525C16.3223 9.52501 16.4054 9.49891 16.4753 9.45022C16.5452 9.40153 16.5985 9.33259 16.628 9.25269C16.6575 9.17278 16.6618 9.08575 16.6404 9.00333C16.6189 8.9209 16.5727 8.84703 16.5079 8.79167C16.2164 8.54971 15.8703 8.38239 15.4996 8.30417C15.5644 7.93756 15.5644 7.56244 15.4996 7.19583C15.483 7.08533 15.4232 6.98593 15.3334 6.91951C15.2435 6.85309 15.1309 6.82509 15.0204 6.84167C14.9099 6.85824 14.8105 6.91804 14.7441 7.0079C14.6777 7.09776 14.6497 7.21033 14.6663 7.32083C14.7365 7.67697 14.7165 8.04503 14.6081 8.39145C14.4996 8.73787 14.3062 9.05164 14.0454 9.30417L12.8538 8.1125C13.2286 7.26568 13.393 6.34077 13.3329 5.41667C13.3329 4.58333 15.2579 5.02083 16.1371 6.19583C18.1001 8.75556 19.1647 11.8909 19.1663 15.1167C19.1663 17.3 19.2204 16.8833 18.6288 18.65V18.6625Z" stroke="#3AC528" stroke-width="0.4" mask="url(#path-1-outside-1_331_29)"/>
</g>
<defs>
<clipPath id="clip0_331_29">
<rect width="20" height="20" fill="white"/>
</clipPath>
</defs>
</svg>
