<svg width="181" height="226" viewBox="0 0 181 226" fill="none" xmlns="http://www.w3.org/2000/svg">
<path d="M164.18 25.9503L90.477 0L17.4893 25.5984C8.17273 29.9141 0 32.4968 0 41.0069V83.378C0 112.802 7.86326 141.961 24.0429 167.703C37.6575 189.364 58.7393 211.668 91.1925 225.846C121.026 216.346 143.297 191.017 156.911 169.356C173.091 143.614 180.954 114.455 180.954 85.031V46.9296C180.954 34.7954 174.393 28.868 164.18 25.9503Z" fill="#3B80FE"/>
<g opacity="0.3">
<path d="M91.1922 201.26C65.5153 190.044 48.8355 172.021 38.0656 154.882C25.2656 134.514 19.0438 111.445 19.0438 88.1646V58.4423C19.0438 51.7089 23.1859 45.4028 31.4131 41.638L90.4915 19.9816L90.4791 0L17.4914 25.5984C9.83119 28.8801 0.0021286 32.4968 0.0021286 41.0069V83.378C0.0021286 112.802 7.86539 141.961 24.045 167.703C37.6596 189.364 58.7414 211.668 91.1947 225.846V201.26H91.1922Z" fill="#263238" fill-opacity="0.5"/>
</g>
<g opacity="0.4">
<path d="M91.1939 225.849C96.3634 224.152 101.112 222.198 105.673 219.761C117.908 213.227 128.346 204.251 136.314 196.129C145.224 187.043 151.864 177.225 157.628 168.055C173.808 142.313 181.671 113.154 180.955 82.9168L181 47.9345C180.955 30.5161 171.842 29.2296 164.182 25.9503L90.4783 0L90.4907 19.9816L150.257 41.9876C158.485 45.7523 162.627 52.0584 162.627 58.7918V88.5142C162.627 111.795 156.405 134.864 143.605 155.231C132.833 172.37 116.871 190.044 91.1939 201.26V225.849Z" fill="#263238" fill-opacity="0.5"/>
</g>
<path d="M110.028 86.2597L110.11 80.5409C110.11 70.1958 101.526 61.7803 90.9739 61.7803C80.4219 61.7803 71.8382 70.1957 71.8382 80.5118L71.754 86.3374C66.5894 87.0874 62.6231 91.4371 62.6231 96.7092V130.439C62.6231 136.238 67.4163 140.937 73.3311 140.937H109.048C114.962 140.937 119.755 136.238 119.755 130.439V96.7092C119.758 91.2357 115.482 86.7452 110.028 86.2597ZM96.0766 122.043H86.7353L88.1936 115.429C86.5768 114.443 85.4949 112.691 85.4949 110.688C85.4949 107.605 88.045 105.105 91.1918 105.105C94.3361 105.105 96.8862 107.605 96.8862 110.688C96.8862 112.62 95.886 114.322 94.3658 115.324C95.0269 117.888 96.0766 122.043 96.0766 122.043ZM105.906 86.2111H75.8812L75.9629 80.5409C75.9629 72.4265 82.6972 65.8218 90.9764 65.8218C99.2556 65.8218 105.99 72.424 105.99 80.5118L105.906 86.2111Z" fill="white"/>
<path d="M30.9851 85.8476C30.8217 85.8695 30.3116 83.6412 29.8808 79.9784C29.4376 76.3204 29.1108 71.2206 29.2816 65.5942C29.3633 62.7809 29.5541 60.1036 29.814 57.6787C30.0517 55.2562 30.5047 52.9843 31.4604 51.2852C32.3963 49.5763 33.706 48.5569 34.6889 48.1054C35.6892 47.6491 36.3131 47.6709 36.3205 47.7413C36.4443 47.8991 33.8298 48.4039 32.275 51.6881C31.5075 53.2756 31.1683 55.3873 30.9975 57.7879C30.8043 60.1958 30.6508 62.8489 30.5716 65.633C30.4033 71.2037 30.5815 76.2524 30.7894 79.9055C30.985 83.5586 31.1757 85.8234 30.9851 85.8476Z" fill="white"/>
<path d="M32.07 104.292C31.7134 104.299 31.3891 102.559 31.347 100.403C31.3049 98.2476 31.5575 96.4975 31.914 96.4903C32.2705 96.483 32.5924 98.2234 32.6369 100.379C32.679 102.532 32.424 104.284 32.07 104.292Z" fill="white"/>
</svg>
