<svg width="23" height="21" viewBox="0 0 23 21" fill="none" xmlns="http://www.w3.org/2000/svg">
<path d="M8.92827 13.242C6.50655 13.242 4.54004 11.2755 4.54004 8.8538C4.54004 6.43208 6.50655 4.46558 8.92827 4.46558C11.35 4.46558 13.3165 6.43208 13.3165 8.8538C13.3165 11.2755 11.35 13.242 8.92827 13.242ZM8.92827 5.68554C7.18026 5.68554 5.75393 7.1058 5.75393 8.85987C5.75393 10.614 7.17419 12.0342 8.92827 12.0342C10.6823 12.0342 12.1026 10.614 12.1026 8.85987C12.1026 7.1058 10.6763 5.68554 8.92827 5.68554Z" fill="#3294E3"/>
<path d="M16.3931 15.9307H13.5526C13.3341 15.9307 13.1277 15.8214 13.0124 15.6393C12.8607 15.3844 12.9153 15.0688 13.1216 14.8807C13.2127 14.7957 13.3523 14.6986 13.5647 14.5529C14.202 14.1159 15.689 13.0902 15.7801 12.2101C15.8044 11.9612 15.7679 11.7792 15.6587 11.6578C15.5373 11.5242 15.3249 11.3604 14.991 11.4089C14.6876 11.4514 14.5055 11.6153 14.4084 11.767C14.287 11.9491 14.0685 12.0462 13.85 12.028C13.3826 11.9916 13.1216 11.4696 13.3766 11.0812C13.674 10.6199 14.202 10.2314 15.0214 10.2314C15.6526 10.2314 16.1989 10.4499 16.557 10.8445C16.7937 11.1054 17.0607 11.5789 16.9818 12.3315C16.8847 13.2662 16.1382 14.0856 15.3795 14.7168H16.3688C16.6905 14.7168 16.9758 14.9596 16.994 15.2812C17.0182 15.6333 16.7391 15.9307 16.3931 15.9307Z" fill="#3294E3"/>
<path d="M2.3605 16.4891C2.34836 16.4891 2.33015 16.4891 2.31801 16.4891L0.60642 16.4284C0.272599 16.4162 0.0116124 16.137 0.0176819 15.8032C0.0237513 15.4694 0.309016 15.2084 0.642837 15.2145L2.35443 15.2752C2.36657 15.2752 2.39084 15.2752 2.40298 15.2448C2.42119 15.2145 2.40905 15.1963 2.40298 15.1902C1.30441 13.2722 0.879547 11.0023 1.19516 8.79904C1.51684 6.56547 2.60935 4.48364 4.26024 2.93593C6.08108 1.23648 8.45425 0.277501 10.9427 0.241084C13.413 0.204667 15.7983 1.07867 17.6495 2.69922C17.9044 2.91772 17.9287 3.30617 17.7102 3.55501C17.4917 3.80993 17.1032 3.83421 16.8544 3.61571C13.4494 0.641669 8.39355 0.732711 5.08569 3.82207C2.09951 6.61403 1.4258 11.0387 3.453 14.5893C3.68364 14.9899 3.67757 15.4815 3.43479 15.876C3.22236 16.2523 2.80357 16.4891 2.3605 16.4891Z" fill="#3294E3"/>
<path d="M11.1007 20.2341C8.67898 20.2341 6.3483 19.3662 4.53353 17.776C4.27861 17.5575 4.25433 17.169 4.47283 16.9202C4.69133 16.6652 5.07371 16.641 5.32863 16.8595C8.7336 19.8335 13.7895 19.7425 17.0973 16.6531C20.0835 13.8612 20.7572 9.43651 18.7361 5.89193C18.5115 5.49135 18.5176 4.99972 18.7543 4.60521C18.991 4.21069 19.428 3.97398 19.8832 3.99219L21.5948 4.05289C21.9286 4.06502 22.1896 4.34422 22.1835 4.67804C22.1714 5.01186 21.8922 5.27285 21.5584 5.26678L19.8468 5.20609C19.8347 5.20609 19.8104 5.20609 19.7982 5.23643C19.78 5.26678 19.7922 5.28499 19.7982 5.29106C20.8968 7.20901 21.3217 9.47899 21 11.6822C20.6783 13.9158 19.5858 15.9976 17.9349 17.5453C16.1141 19.2448 13.7409 20.2037 11.2524 20.2402C11.1917 20.2341 11.1493 20.2341 11.1007 20.2341Z" fill="#3294E3"/>
</svg>
