<svg width="99" height="99" viewBox="0 0 99 99" fill="none" xmlns="http://www.w3.org/2000/svg">
<g filter="url(#filter0_d_314_11)">
<ellipse cx="49.2241" cy="48.0836" rx="29.2241" ry="29.0836" fill="#3C7FFF"/>
<path d="M77.0733 48.0836C77.0733 63.3805 64.6111 75.7923 49.2241 75.7923C33.8372 75.7923 21.3749 63.3805 21.3749 48.0836C21.3749 32.7868 33.8372 20.3749 49.2241 20.3749C64.6111 20.3749 77.0733 32.7868 77.0733 48.0836Z" stroke="white" stroke-width="2.74986"/>
</g>
<path fill-rule="evenodd" clip-rule="evenodd" d="M65.2709 61.099L55.953 45.3559V33.509C55.953 32.9005 55.4393 32.4026 54.8071 32.4026C54.1748 32.4026 53.6611 32.8926 53.6611 33.509V45.6483C53.6611 45.7905 53.7086 45.9328 53.7639 46.0671C53.1632 45.1899 52.1358 44.613 50.9662 44.613C49.1089 44.613 47.6073 46.0592 47.6073 47.8533C47.6073 49.181 48.4371 50.3428 49.6147 50.8169H43.9244L46.6905 46.1936C46.7854 46.0276 46.8565 45.838 46.8565 45.6483V43.2457C47.1726 43.4986 47.6468 43.6488 48.1289 43.6488C49.3381 43.6488 50.3023 42.7083 50.3023 41.5465C50.3023 40.3848 49.3381 39.4443 48.1289 39.4443C47.6468 39.4443 47.1726 39.5945 46.8565 39.8474V33.509C46.8565 32.9005 46.3428 32.4026 45.7106 32.4026C45.0783 32.4026 44.5646 32.8926 44.5646 33.509V45.3559L35.2547 61.099C35.0571 61.4388 35.0492 61.8577 35.2547 62.1975C35.4602 62.5373 35.8237 62.7507 36.2347 62.7507H50.2628H64.2909C64.6939 62.7507 65.0654 62.5452 65.2709 62.1975C65.4764 61.8656 65.4684 61.4388 65.2709 61.099V61.099ZM52.3333 50.817C53.5108 50.3428 54.3407 49.1731 54.3407 47.8533C54.3407 47.4028 54.2458 46.9681 54.072 46.5809L56.5219 50.817H52.3333V50.817Z" fill="white"/>
<path fill-rule="evenodd" clip-rule="evenodd" d="M50.9816 37.5081C51.93 37.5081 52.6966 36.7652 52.6966 35.8563C52.6966 34.9396 51.93 34.2046 50.9816 34.2046C50.0333 34.2046 49.2667 34.9475 49.2667 35.8563C49.2588 36.7652 50.0333 37.5081 50.9816 37.5081V37.5081Z" fill="white"/>
<defs>
<filter id="filter0_d_314_11" x="0.0635293" y="0.0947261" width="98.3212" height="98.0402" filterUnits="userSpaceOnUse" color-interpolation-filters="sRGB">
<feFlood flood-opacity="0" result="BackgroundImageFix"/>
<feColorMatrix in="SourceAlpha" type="matrix" values="0 0 0 0 0 0 0 0 0 0 0 0 0 0 0 0 0 0 127 0" result="hardAlpha"/>
<feMorphology radius="3.09359" operator="dilate" in="SourceAlpha" result="effect1_dropShadow_314_11"/>
<feOffset dy="1.0312"/>
<feGaussianBlur stdDeviation="8.42144"/>
<feColorMatrix type="matrix" values="0 0 0 0 0 0 0 0 0 0 0 0 0 0 0 0 0 0 0.06 0"/>
<feBlend mode="normal" in2="BackgroundImageFix" result="effect1_dropShadow_314_11"/>
<feBlend mode="normal" in="SourceGraphic" in2="effect1_dropShadow_314_11" result="shape"/>
</filter>
</defs>
</svg>
