<svg width="92" height="92" viewBox="0 0 92 92" fill="none" xmlns="http://www.w3.org/2000/svg">
<g filter="url(#filter0_d_98_5329)">
<circle cx="45.8303" cy="44.9262" r="25.7116" fill="#3C7FFF"/>
<circle cx="45.8303" cy="44.9262" r="24.3367" stroke="white" stroke-width="2.74986"/>
</g>
<path fill-rule="evenodd" clip-rule="evenodd" d="M58.6415 36.6217H51.7822V34.8694C51.7251 33.2598 50.5439 32.0554 48.8604 32.0554H46.3039H43.7473C42.0696 32.0554 40.8826 33.2598 40.8256 34.8694V36.6217H33.9663C33.7152 36.6217 33.5212 36.8272 33.5212 37.0783V53.5169C33.5212 53.768 33.7095 53.9735 33.9663 53.9735H58.6472C58.8983 53.9735 59.0923 53.768 59.0923 53.5169V37.0783C59.0866 36.8272 58.8983 36.6217 58.6415 36.6217ZM42.5136 34.9858C42.5136 34.9624 42.5136 34.9449 42.5136 34.9274C42.5136 34.9098 42.5136 34.8923 42.5136 34.8689C42.5136 34.3023 43.0044 33.7414 43.5866 33.7414H46.1666H48.7465C49.323 33.7414 49.8196 34.2964 49.8196 34.8689C49.8196 34.8865 49.8196 34.904 49.8196 34.9274C49.8196 34.9507 49.8196 34.9624 49.8196 34.9858V36.5514H42.5136V34.9858ZM51.7864 46.6675H48.1334V50.3205H44.4804V46.6675H40.8274V43.0144H44.4804V39.3614H48.1334V43.0144H51.7864V46.6675Z" fill="white"/>
<defs>
<filter id="filter0_d_98_5329" x="0.182243" y="0.309326" width="91.2962" height="91.296" filterUnits="userSpaceOnUse" color-interpolation-filters="sRGB">
<feFlood flood-opacity="0" result="BackgroundImageFix"/>
<feColorMatrix in="SourceAlpha" type="matrix" values="0 0 0 0 0 0 0 0 0 0 0 0 0 0 0 0 0 0 127 0" result="hardAlpha"/>
<feMorphology radius="3.09359" operator="dilate" in="SourceAlpha" result="effect1_dropShadow_98_5329"/>
<feOffset dy="1.0312"/>
<feGaussianBlur stdDeviation="8.42144"/>
<feColorMatrix type="matrix" values="0 0 0 0 0 0 0 0 0 0 0 0 0 0 0 0 0 0 0.06 0"/>
<feBlend mode="normal" in2="BackgroundImageFix" result="effect1_dropShadow_98_5329"/>
<feBlend mode="normal" in="SourceGraphic" in2="effect1_dropShadow_98_5329" result="shape"/>
</filter>
</defs>
</svg>
