<svg width="59" height="58" viewBox="0 0 59 58" fill="none" xmlns="http://www.w3.org/2000/svg">
<g filter="url(#filter0_d_98_5348)">
<ellipse cx="29.1106" cy="28.0661" rx="8.99204" ry="8.85154" fill="#3C7FFF"/>
<path d="M36.7277 28.0661C36.7277 32.175 33.3379 35.5427 29.1106 35.5427C24.8833 35.5427 21.4935 32.175 21.4935 28.0661C21.4935 23.9573 24.8833 20.5895 29.1106 20.5895C33.3379 20.5895 36.7277 23.9573 36.7277 28.0661Z" stroke="white" stroke-width="2.74986"/>
</g>
<path fill-rule="evenodd" clip-rule="evenodd" d="M31.8445 25.2823C31.1896 24.5738 30.1263 24.5738 29.4714 25.2823L29.0256 25.7619L28.5799 25.2806C27.9234 24.5722 26.8617 24.5722 26.2068 25.2806C25.4692 26.0765 25.4692 27.3689 26.2068 28.1648L29.0256 31.2123L31.8445 28.1665C32.582 27.3706 32.582 26.0782 31.8445 25.2823Z" fill="white"/>
<defs>
<filter id="filter0_d_98_5348" x="0.182121" y="0.309326" width="57.857" height="57.5761" filterUnits="userSpaceOnUse" color-interpolation-filters="sRGB">
<feFlood flood-opacity="0" result="BackgroundImageFix"/>
<feColorMatrix in="SourceAlpha" type="matrix" values="0 0 0 0 0 0 0 0 0 0 0 0 0 0 0 0 0 0 127 0" result="hardAlpha"/>
<feMorphology radius="3.09359" operator="dilate" in="SourceAlpha" result="effect1_dropShadow_98_5348"/>
<feOffset dy="1.0312"/>
<feGaussianBlur stdDeviation="8.42144"/>
<feColorMatrix type="matrix" values="0 0 0 0 0 0 0 0 0 0 0 0 0 0 0 0 0 0 0.06 0"/>
<feBlend mode="normal" in2="BackgroundImageFix" result="effect1_dropShadow_98_5348"/>
<feBlend mode="normal" in="SourceGraphic" in2="effect1_dropShadow_98_5348" result="shape"/>
</filter>
</defs>
</svg>
