<svg width="75" height="75" viewBox="0 0 75 75" fill="none" xmlns="http://www.w3.org/2000/svg">
<g filter="url(#filter0_d_98_5319)">
<ellipse cx="37.5408" cy="36.4962" rx="17.4221" ry="17.2816" fill="#3C7FFF"/>
<path d="M53.5879 36.4962C53.5879 45.2707 46.4139 52.4028 37.5408 52.4028C28.6677 52.4028 21.4936 45.2707 21.4936 36.4962C21.4936 27.7216 28.6677 20.5895 37.5408 20.5895C46.4139 20.5895 53.5879 27.7216 53.5879 36.4962Z" stroke="white" stroke-width="2.74986"/>
</g>
<ellipse cx="37.5406" cy="36.4747" rx="2.72973" ry="2.74523" fill="white"/>
<path fill-rule="evenodd" clip-rule="evenodd" d="M32.7637 36.4746C32.7637 34.8918 33.555 33.506 34.7391 32.7414L33.7521 31.6899C33.4851 31.8876 33.2326 32.1117 32.9978 32.3618C31.9667 33.4604 31.3989 34.921 31.3989 36.4746C31.3989 38.0282 31.9667 39.4888 32.9979 40.5875C33.2326 40.8375 33.4851 41.0617 33.7521 41.2593L34.7392 40.2079C33.555 39.4433 32.7637 38.0574 32.7637 36.4746Z" fill="white"/>
<path fill-rule="evenodd" clip-rule="evenodd" d="M42.3177 36.4746C42.3177 38.0574 41.5264 39.4432 40.3423 40.2078L41.3293 41.2592C41.5963 41.0616 41.8488 40.8374 42.0836 40.5874C43.1147 39.4888 43.6826 38.0282 43.6826 36.4746C43.6826 34.921 43.1147 33.4604 42.0836 32.3618C41.8488 32.1117 41.5963 31.8876 41.3293 31.6899L40.3423 32.7414C41.5264 33.506 42.3177 34.8918 42.3177 36.4746Z" fill="white"/>
<path fill-rule="evenodd" clip-rule="evenodd" d="M29.3522 36.4747C29.3522 34.0907 30.4292 31.9747 32.0932 30.6489L31.1194 29.6116C30.8636 29.826 30.6187 30.0575 30.3859 30.3055C29.6343 31.1063 29.044 32.0392 28.6315 33.0782C28.2041 34.1548 27.9874 35.2975 27.9874 36.4747C27.9874 37.6518 28.2041 38.7945 28.6315 39.8711C29.044 40.9102 29.6343 41.843 30.3859 42.6438C30.6187 42.8918 30.8636 43.1233 31.1194 43.3378L32.0931 42.3005C30.4292 40.9746 29.3522 38.8586 29.3522 36.4747Z" fill="white"/>
<path fill-rule="evenodd" clip-rule="evenodd" d="M45.7305 36.4747C45.7305 38.8586 44.6535 40.9746 42.9896 42.3004L43.9633 43.3234C44.2192 43.1089 44.464 42.8918 44.6968 42.6438C45.4484 41.843 46.0387 40.9102 46.4512 39.871C46.8786 38.7945 47.0954 37.6518 47.0954 36.4747C47.0954 35.2975 46.8786 34.1548 46.4512 33.0782C46.0387 32.0391 45.4484 31.1063 44.6968 30.3055C44.464 30.0575 44.2192 29.826 43.9633 29.6116L42.9896 30.6489C44.6535 31.9747 45.7305 34.0907 45.7305 36.4747Z" fill="white"/>
<defs>
<filter id="filter0_d_98_5319" x="0.182243" y="0.309326" width="74.7171" height="74.4362" filterUnits="userSpaceOnUse" color-interpolation-filters="sRGB">
<feFlood flood-opacity="0" result="BackgroundImageFix"/>
<feColorMatrix in="SourceAlpha" type="matrix" values="0 0 0 0 0 0 0 0 0 0 0 0 0 0 0 0 0 0 127 0" result="hardAlpha"/>
<feMorphology radius="3.09359" operator="dilate" in="SourceAlpha" result="effect1_dropShadow_98_5319"/>
<feOffset dy="1.0312"/>
<feGaussianBlur stdDeviation="8.42144"/>
<feColorMatrix type="matrix" values="0 0 0 0 0 0 0 0 0 0 0 0 0 0 0 0 0 0 0.06 0"/>
<feBlend mode="normal" in2="BackgroundImageFix" result="effect1_dropShadow_98_5319"/>
<feBlend mode="normal" in="SourceGraphic" in2="effect1_dropShadow_98_5319" result="shape"/>
</filter>
</defs>
</svg>
