<svg width="66" height="66" viewBox="0 0 66 66" fill="none" xmlns="http://www.w3.org/2000/svg">
<g filter="url(#filter0_d_98_5337)">
<ellipse cx="33.0446" cy="32.0002" rx="12.9261" ry="12.7856" fill="#3C7FFF"/>
<path d="M44.5958 32.0002C44.5958 38.2879 39.4384 43.4108 33.0446 43.4108C26.6509 43.4108 21.4935 38.2879 21.4935 32.0002C21.4935 25.7124 26.6509 20.5895 33.0446 20.5895C39.4384 20.5895 44.5958 25.7124 44.5958 32.0002Z" stroke="white" stroke-width="2.74986"/>
</g>
<path fill-rule="evenodd" clip-rule="evenodd" d="M32.5943 34.7001C32.0469 35.0096 31.414 35.1864 30.7394 35.1864C30.065 35.1864 29.4322 35.0096 28.8849 34.7003C27.4331 35.141 26.5434 36.6012 26.2158 37.8878H35.2632C34.9357 36.6012 34.0462 35.1406 32.5943 34.7001Z" fill="white"/>
<path fill-rule="evenodd" clip-rule="evenodd" d="M30.7394 27.8414C28.9393 27.8414 27.48 29.2932 27.48 31.0841C27.48 32.875 28.9393 34.3268 30.7394 34.3268C32.5396 34.3268 33.9989 32.875 33.9989 31.0841C33.9989 29.2932 32.5396 27.8414 30.7394 27.8414ZM30.7399 33.554C29.7034 33.554 28.8177 32.8643 28.4621 32.0063H33.0177C32.6621 32.8644 31.7764 33.554 30.7399 33.554Z" fill="white"/>
<path fill-rule="evenodd" clip-rule="evenodd" d="M35.1073 35.9113H39.9098C39.5852 34.6307 38.7035 33.4205 37.2643 32.9821C36.7218 33.2901 36.0944 33.466 35.4258 33.466C34.9735 33.466 34.5402 33.3851 34.1392 33.2377C33.912 33.6179 33.6227 34.018 33.2856 34.302C34.0895 34.611 34.6967 35.3015 35.1073 35.9113Z" fill="white"/>
<path fill-rule="evenodd" clip-rule="evenodd" d="M34.6176 30.3011H37.6838C37.3313 31.1548 36.4534 31.8346 35.426 31.8346C35.1552 31.8346 34.895 31.783 34.6518 31.6971C34.611 31.9626 34.5437 32.2175 34.4529 32.4629C34.76 32.5597 35.0869 32.6112 35.426 32.6112C37.2103 32.6112 38.6568 31.1656 38.6568 29.3831C38.6568 27.6004 37.2103 26.1552 35.426 26.1552C34.2821 26.1552 33.2772 26.7559 32.7031 27.6519C33.6736 28.2089 34.3862 29.173 34.6176 30.3011Z" fill="white"/>
<defs>
<filter id="filter0_d_98_5337" x="0.182121" y="0.309326" width="65.7251" height="65.444" filterUnits="userSpaceOnUse" color-interpolation-filters="sRGB">
<feFlood flood-opacity="0" result="BackgroundImageFix"/>
<feColorMatrix in="SourceAlpha" type="matrix" values="0 0 0 0 0 0 0 0 0 0 0 0 0 0 0 0 0 0 127 0" result="hardAlpha"/>
<feMorphology radius="3.09359" operator="dilate" in="SourceAlpha" result="effect1_dropShadow_98_5337"/>
<feOffset dy="1.0312"/>
<feGaussianBlur stdDeviation="8.42144"/>
<feColorMatrix type="matrix" values="0 0 0 0 0 0 0 0 0 0 0 0 0 0 0 0 0 0 0.06 0"/>
<feBlend mode="normal" in2="BackgroundImageFix" result="effect1_dropShadow_98_5337"/>
<feBlend mode="normal" in="SourceGraphic" in2="effect1_dropShadow_98_5337" result="shape"/>
</filter>
</defs>
</svg>
