<svg width="100" height="99" viewBox="0 0 100 99" fill="none" xmlns="http://www.w3.org/2000/svg">
<g filter="url(#filter0_d_98_5352)">
<ellipse cx="49.9446" cy="48.5568" rx="29.2241" ry="29.0836" fill="#3C7FFF"/>
<path d="M77.7938 48.5568C77.7938 63.8536 65.3315 76.2655 49.9446 76.2655C34.5576 76.2655 22.0954 63.8536 22.0954 48.5568C22.0954 33.2599 34.5576 20.8481 49.9446 20.8481C65.3315 20.8481 77.7938 33.2599 77.7938 48.5568Z" stroke="white" stroke-width="2.74986"/>
</g>
<path fill-rule="evenodd" clip-rule="evenodd" d="M63.9934 50.1934C62.5365 50.1934 61.3018 51.1485 60.8703 52.4448H58.2088L56.2663 46.6173C56.1172 46.1702 55.6976 45.8698 55.2263 45.8698C55.2187 45.8698 55.211 45.8698 55.2034 45.8701C54.7228 45.88 54.3049 46.2006 54.1726 46.6607L51.1257 57.2533L47.5399 35.8236C47.4544 35.3133 47.0296 34.843 46.4589 34.843C45.8881 34.843 45.521 35.2371 45.3955 35.7391L41.2188 52.4448H34.4039V54.6279H42.0753C42.5786 54.6279 43.0171 54.2865 43.1386 53.8L46.2461 41.3712L49.7615 62.3801C49.8456 62.8834 50.2681 63.1933 50.7796 63.2222C50.8006 63.2235 50.8216 63.2241 50.8425 63.2241C51.3286 63.2241 51.7607 62.9716 51.896 62.5014L55.3032 50.6566L56.3778 53.8803C56.5266 54.3267 56.9457 54.6279 57.4179 54.6279H60.9185C61.3887 55.8559 62.5877 56.7429 63.9934 56.7429C65.8092 56.7429 67.2811 55.2084 67.2811 53.3999C67.2811 51.5914 65.8092 50.1934 63.9934 50.1934Z" fill="white"/>
<defs>
<filter id="filter0_d_98_5352" x="0.783988" y="0.567871" width="98.3212" height="98.0402" filterUnits="userSpaceOnUse" color-interpolation-filters="sRGB">
<feFlood flood-opacity="0" result="BackgroundImageFix"/>
<feColorMatrix in="SourceAlpha" type="matrix" values="0 0 0 0 0 0 0 0 0 0 0 0 0 0 0 0 0 0 127 0" result="hardAlpha"/>
<feMorphology radius="3.09359" operator="dilate" in="SourceAlpha" result="effect1_dropShadow_98_5352"/>
<feOffset dy="1.0312"/>
<feGaussianBlur stdDeviation="8.42144"/>
<feColorMatrix type="matrix" values="0 0 0 0 0 0 0 0 0 0 0 0 0 0 0 0 0 0 0.06 0"/>
<feBlend mode="normal" in2="BackgroundImageFix" result="effect1_dropShadow_98_5352"/>
<feBlend mode="normal" in="SourceGraphic" in2="effect1_dropShadow_98_5352" result="shape"/>
</filter>
</defs>
</svg>
